# xmcd
#
# Track frame offsets: 
#        150
#        13320
#        26625
#        41437
#        55415
#        69835
#        83445
#        96127
#        111760
#        125132
#        139530
#        152707
#        166495
#        181072
#        195420
#        210390
#        223650
#        236630
#        251630
#        266702
#        281367
#        296277
#        309607
#        323500
#        338367
#
# Disc length: 4674 seconds
#
# Revision: 7
# Processed by: cddbd v1.5.2PL0 Copyright (c) Steve Scherf et al.
# Submitted via: ExactAudioCopy v1.1
#
DISCID=59124019
DTITLE=Various Artist - Roots n' Blues - The Retrospective 1925-1950 
DTITLE=Disc 2
DYEAR=1992
DGENRE=Blues
TTITLE0=Hershel Brown and His Happy Five - Liberty (mono)
TTITLE1=Mamie Smith - My Sportin' Man (mono)
TTITLE2=Blues Birdhead - Mean Low Blues (mono)
TTITLE3=Pink Anderson and Simmie Dooley - C.C. and O. Blues (mono)
TTITLE4=The OKeh Atlanta Sacred Harp Singers - Ortonville (mono)
TTITLE5=Slim Doucet - Dear Black Eyes (Chere Yeux Noirs)  (mono)
TTITLE6=Roosevelt Sykes - Roosevelt Blues (mono)
TTITLE7=The Hokum Boys - Gin Mill Blues (mono)
TTITLE8=Joe Falcon with Clemo and Ophy Breaux - Osson (mono)
TTITLE9=W.T. Narmour and S.W. Smith - Sweet Milk and Peaches (Breakdown)
TTITLE9=(mono)
TTITLE10=Gid Tanner and The Skillet Lickers with Riley Puckett and Clayton
TTITLE10=McMichen - Soldier's Joy (mono)
TTITLE11=Whistlin' Alex Moore - They May Not Be My Toes (mono)
TTITLE12=The Mississippi Sheiks - The Jazz Fiddler (mono)
TTITLE13=Lonnie Johnson - I Have to Do My Time (mono)
TTITLE14=Tom Darby and Jimmie Tarlton - Lonesome Frisco Linev
TTITLE15=Roy Harvey and Leonard Copeland - Back to the Blue Ridge (mono)
TTITLE16=Buster Carter and Preston Young - Darn Good Girl (mono)
TTITLE17=Bo Carter - West Jackson Blues (mono)
TTITLE18=Lonnie Johnson and Clara Smith (as Violet Green) - You Had Too 
TTITLE18=Much (mono)
TTITLE19=The Silver Leaf Quartet - Oh! Glory Glory (mono)
TTITLE20=Freeny's Barn Dance Band - Don't You Remember the Time (mono)
TTITLE21=The Pelican Wildcats - Walkin' Georgia Rose (mono)
TTITLE22=Peetie Wheatstraw (The Devil's Son-in-Law) - Police Station B
TTITLE22=lues (mono)
TTITLE23=The Tindley Quaker City Gospel Singers - Hallelujah Side (mon
TTITLE23=o)
TTITLE24=Will Batts - Highway #61 Blues (mono)
EXTD=4CD: Columbia/Legacy C4K 47911 (1992-06-30), UPC 074644791129.
EXTT0=Previously unissued
EXTT1=Previously unissued
EXTT2=
EXTT3=
EXTT4=
EXTT5=
EXTT6=
EXTT7=
EXTT8=
EXTT9=
EXTT10=
EXTT11=
EXTT12=
EXTT13=
EXTT14=Previously unissued
EXTT15=Previously unissued
EXTT16=Previously unissued
EXTT17=Previously unissued
EXTT18=
EXTT19=Previously unissued
EXTT20=
EXTT21=
EXTT22=
EXTT23=Previously unissued
EXTT24=
PLAYORDER=
